<svg width="50" height="50" viewBox="0 0 50 50" fill="none" xmlns="http://www.w3.org/2000/svg">
<path d="M24.9331 49.4326C38.4271 49.4326 49.3662 38.4935 49.3662 24.9995C49.3662 11.5055 38.4271 0.566406 24.9331 0.566406C11.4391 0.566406 0.5 11.5055 0.5 24.9995C0.5 38.4935 11.4391 49.4326 24.9331 49.4326Z" fill="url(#paint0_linear_656_9146)" fill-opacity="0.8"/>
<path fill-rule="evenodd" clip-rule="evenodd" d="M26.2464 8.44243C25.9124 8.52674 25.5356 8.71494 25.2756 8.92727C25.1131 9.06002 23.0366 11.7972 17.1002 19.7045C12.7235 25.5341 9.04521 30.4218 8.92614 30.5658C8.15899 31.4936 8.12553 32.756 8.84247 33.7219C8.92045 33.827 10.625 35.5482 12.6302 37.5466C16.1728 41.0771 16.2852 41.1845 16.593 41.3332C17.1638 41.609 17.7635 41.6759 18.3414 41.5282C18.76 41.4213 19.002 41.293 19.4212 40.9564C19.6137 40.8016 20.6103 40.0453 21.6358 39.2755C22.6613 38.5056 24.3633 37.2269 25.4178 36.4338C32.9118 30.7973 35.2647 29.0281 37.8452 27.0894C39.4552 25.8799 40.8508 24.8032 40.9464 24.697C41.2998 24.3046 41.5389 23.6541 41.5389 23.0856C41.5389 22.6038 41.3707 22.0616 41.0992 21.6684C41.0336 21.5735 38.1486 18.6613 34.6883 15.1969C27.9482 8.44903 28.211 8.69703 27.59 8.4979C27.2363 8.38444 26.5831 8.35748 26.2464 8.44243ZM26.8568 11.2429C26.4113 11.3229 25.9196 11.5832 25.6349 11.89C25.553 11.9783 25.0938 12.5547 24.6145 13.1707C23.5984 14.4771 17.7967 21.9025 15.8742 24.3576C15.1475 25.2856 14.5531 26.0561 14.5531 26.0702C14.5531 26.103 15.2603 26.5582 15.7122 26.8164C16.2604 27.1296 17.3901 27.6729 17.9369 27.8864C19.3169 28.4252 20.1606 28.6072 21.549 28.6655C22.5429 28.7072 23.1659 28.7932 23.9547 28.9981C25.3903 29.3708 27.07 30.1701 28.35 31.0898C28.538 31.2248 28.6948 31.31 28.7237 31.2928C28.8815 31.1985 38.214 24.1766 38.2887 24.0959C38.4482 23.9236 38.6762 23.5082 38.7602 23.2367C38.8779 22.8559 38.8717 22.2258 38.7468 21.8593C38.5372 21.2453 38.7752 21.4971 33.6103 16.4262C32.206 15.0474 30.5618 13.4311 29.9566 12.8346C29.3509 12.2374 28.7506 11.6826 28.6209 11.6003C28.1417 11.2958 27.3999 11.1456 26.8568 11.2429Z" fill="#FFFDFD"/>
<defs>
<linearGradient id="paint0_linear_656_9146" x1="-19.5377" y1="25.0491" x2="72.0325" y2="25.0491" gradientUnits="userSpaceOnUse">
<stop stop-color="#FF0F7B"/>
<stop offset="1" stop-color="#F89B29"/>
</linearGradient>
</defs>
</svg>
