<svg width="123" height="16" viewBox="0 0 123 16" fill="none" xmlns="http://www.w3.org/2000/svg">
<path d="M8.3143 15.8959C7.2129 15.8959 6.17592 15.6956 5.20324 15.2951C4.24493 14.8946 3.4081 14.3439 2.69296 13.643C1.97772 12.9278 1.4127 12.0982 0.997903 11.1542C0.597374 10.1958 0.397217 9.1659 0.397217 8.06451C0.397217 6.96311 0.604617 5.94038 1.01941 4.99634C1.43421 4.0523 2.00636 3.22985 2.73587 2.52898C3.47965 1.81373 4.34501 1.26309 5.33195 0.876824C6.3189 0.476403 7.37739 0.276139 8.50743 0.276139C9.8091 0.276139 10.9892 0.512068 12.0476 0.984142C12.6426 1.24597 13.1804 1.56277 13.661 1.93457C14.3103 2.43687 14.2619 3.38292 13.6814 3.96338C13.0082 4.63648 11.9051 4.52691 11.0924 4.03128C10.9639 3.9529 10.8317 3.88123 10.6959 3.81627C10.0379 3.50166 9.29412 3.3443 8.46453 3.3443C7.57766 3.3443 6.78384 3.54456 6.08297 3.94498C5.38199 4.33125 4.83135 4.88189 4.43082 5.59714C4.04466 6.29801 3.85153 7.12046 3.85153 8.06451C3.85153 9.00855 4.04466 9.83824 4.43082 10.5534C4.81708 11.2686 5.34633 11.8264 6.01856 12.2269C6.69079 12.6275 7.46321 12.8277 8.33581 12.8277C9.22257 12.8277 9.97359 12.6632 10.5886 12.3343C11.218 11.9909 11.6972 11.5046 12.0262 10.8752C12.2426 10.4693 12.3909 10.0093 12.4709 9.49535C12.5339 9.09007 12.9992 8.84485 13.3394 9.07386C13.7624 9.35855 13.5551 10.0191 13.0453 10.011L9.42928 9.95364C8.64402 9.94118 8.01396 9.30105 8.01396 8.51569C8.01396 7.72143 8.65784 7.07756 9.45209 7.07756H15.4805C15.753 7.07756 15.9739 7.29849 15.9739 7.57103C15.9739 9.38768 15.645 10.9181 14.987 12.1625C14.3434 13.3926 13.4423 14.3224 12.2836 14.9518C11.1393 15.5812 9.81623 15.8959 8.3143 15.8959ZM19.3566 15.6598C18.4501 15.6598 17.7153 14.925 17.7153 14.0185V1.72435C17.7153 0.817863 18.4501 0.0830078 19.3566 0.0830078C20.2631 0.0830078 20.998 0.817863 20.998 1.72435V14.0185C20.998 14.925 20.2631 15.6598 19.3566 15.6598ZM27.6651 15.8744C26.7068 15.8744 25.8486 15.6383 25.0905 15.1664C24.3467 14.6943 23.7531 14.0507 23.3097 13.2354C22.8805 12.4201 22.666 11.4903 22.666 10.4461C22.666 9.40194 22.8805 8.47217 23.3097 7.65684C23.7531 6.84152 24.3467 6.19793 25.0905 5.72586C25.8486 5.25378 26.7068 5.01785 27.6651 5.01785C28.366 5.01785 28.9955 5.1537 29.5533 5.42551C30.1254 5.69722 30.5903 6.07635 30.9479 6.56258C31.3055 7.03465 31.5057 7.57816 31.5486 8.19322V12.699C31.5057 13.3141 31.3055 13.8647 30.9479 14.3511C30.6046 14.823 30.1469 15.195 29.5747 15.4667C29.0026 15.7385 28.366 15.8744 27.6651 15.8744ZM28.3304 12.9135C29.0312 12.9135 29.5962 12.6846 30.0253 12.2269C30.4545 11.7549 30.669 11.1613 30.669 10.4461C30.669 9.95983 30.5688 9.53066 30.3686 9.15877C30.1827 8.78688 29.9109 8.50081 29.5533 8.30054C29.21 8.08601 28.8095 7.97869 28.3518 7.97869C27.8941 7.97869 27.4864 8.08601 27.1288 8.30054C26.7855 8.50081 26.5066 8.78688 26.292 9.15877C26.0918 9.53066 25.9916 9.95983 25.9916 10.4461C25.9916 10.9181 26.0918 11.3401 26.292 11.712C26.4923 12.0838 26.7711 12.3772 27.1288 12.5917C27.4864 12.8062 27.8869 12.9135 28.3304 12.9135ZM32.1494 15.6598C31.2607 15.6598 30.5403 14.9394 30.5403 14.0507V13.0966C30.5403 12.932 30.5561 12.7678 30.5876 12.6062L30.7038 12.0105C30.9217 10.8922 30.9217 9.74245 30.7038 8.62423L30.5833 8.00621C30.5547 7.85945 30.5403 7.71028 30.5403 7.56076V6.84152C30.5403 5.95282 31.2607 5.23238 32.1494 5.23238C33.0381 5.23238 33.7586 5.95282 33.7586 6.84152V14.0507C33.7586 14.9394 33.0381 15.6598 32.1494 15.6598ZM39.8676 15.9173C39.2526 15.9173 38.6447 15.8386 38.0439 15.6812C37.4575 15.524 36.9067 15.3022 36.3918 15.0161C36.2798 14.9489 36.1714 14.8796 36.0665 14.8081C35.4806 14.4086 35.4973 13.5889 35.9959 13.0846C36.5271 12.5473 37.3995 12.5879 38.077 12.9224C38.1156 12.9414 38.1546 12.9599 38.1941 12.9778C38.6661 13.1781 39.181 13.2783 39.7388 13.2783C40.1251 13.2783 40.4183 13.221 40.6186 13.1066C40.8331 12.9922 40.9404 12.8349 40.9404 12.6346C40.9404 12.3772 40.8117 12.184 40.5541 12.0553C40.311 11.9122 39.9964 11.7906 39.6101 11.6906C39.224 11.5761 38.8163 11.4545 38.3871 11.3258C37.9581 11.1971 37.5504 11.0182 37.1642 10.7894C36.778 10.5605 36.4633 10.2459 36.2201 9.84538C35.9769 9.43058 35.8553 8.90847 35.8553 8.27904C35.8553 7.60681 36.0271 7.02752 36.3703 6.54118C36.7136 6.04057 37.1999 5.64718 37.8293 5.3611C38.4587 5.07502 39.1953 4.93204 40.0393 4.93204C40.9261 4.93204 41.7414 5.08929 42.4852 5.40401C42.8476 5.54759 43.1774 5.72552 43.4744 5.93778C44.0267 6.33243 43.9724 7.1178 43.4952 7.60052L43.4457 7.65053C42.9175 8.18481 42.0505 8.09496 41.3481 7.82847C40.9475 7.67122 40.5541 7.59254 40.168 7.59254C39.7961 7.59254 39.5172 7.64971 39.3313 7.76416C39.1453 7.86424 39.0523 8.01447 39.0523 8.21473C39.0523 8.42926 39.1739 8.60088 39.4171 8.7296C39.6602 8.85843 39.9749 8.97277 40.3611 9.07296C40.7473 9.17304 41.1549 9.29462 41.5841 9.43771C42.0132 9.5807 42.4208 9.77383 42.8071 10.017C43.1932 10.2602 43.508 10.5892 43.7511 11.0039C43.9943 11.4045 44.1159 11.9337 44.1159 12.5917C44.1159 13.6073 43.7296 14.4154 42.9572 15.0161C42.1992 15.6169 41.1692 15.9173 39.8676 15.9173ZM49.6945 15.9173C49.0794 15.9173 48.4716 15.8386 47.8708 15.6812C47.2843 15.524 46.7336 15.3022 46.2187 15.0161C46.1067 14.949 45.9982 14.8796 45.8934 14.8081C45.3075 14.4086 45.3242 13.5889 45.8228 13.0846C46.354 12.5473 47.2263 12.5879 47.9039 12.9224C47.9425 12.9414 47.9815 12.9599 48.021 12.9778C48.493 13.1781 49.0079 13.2783 49.5657 13.2783C49.952 13.2783 50.2452 13.221 50.4454 13.1066C50.66 12.9922 50.7673 12.8349 50.7673 12.6346C50.7673 12.3772 50.6386 12.184 50.381 12.0553C50.1379 11.9122 49.8233 11.7906 49.437 11.6906C49.0508 11.5761 48.6432 11.4545 48.214 11.3258C47.785 11.1971 47.3773 11.0182 46.991 10.7894C46.6049 10.5605 46.2902 10.2459 46.047 9.84538C45.8038 9.43058 45.6822 8.90847 45.6822 8.27904C45.6822 7.60681 45.854 7.02752 46.1972 6.54118C46.5405 6.04057 47.0268 5.64718 47.6562 5.3611C48.2856 5.07502 49.0222 4.93204 49.8662 4.93204C50.7529 4.93204 51.5682 5.08929 52.3121 5.40401C52.6745 5.5476 53.0043 5.72552 53.3013 5.93778C53.8536 6.33244 53.7993 7.1178 53.3221 7.60052L53.2726 7.65052C52.7444 8.18481 51.8774 8.09496 51.175 7.82847C50.7744 7.67122 50.381 7.59254 49.9949 7.59254C49.623 7.59254 49.344 7.64971 49.158 7.76416C48.9722 7.86424 48.8792 8.01447 48.8792 8.21473C48.8792 8.42926 49.0008 8.60088 49.244 8.7296C49.487 8.85843 49.8018 8.97277 50.188 9.07296C50.5742 9.17304 50.9818 9.29462 51.411 9.43771C51.8401 9.5807 52.2477 9.77383 52.6339 10.017C53.0201 10.2602 53.3349 10.5892 53.578 11.0039C53.8211 11.4045 53.9427 11.9337 53.9427 12.5917C53.9427 13.6073 53.5565 14.4154 52.7841 15.0161C52.0261 15.6169 50.9961 15.9173 49.6945 15.9173ZM65.1924 15.6598C64.4141 15.6598 63.7247 15.1574 63.4865 14.4164L59.6812 2.58188C59.3522 1.55889 60.1152 0.512068 61.1898 0.512068C61.8866 0.512068 62.5016 0.967139 62.7053 1.63343L65.7326 11.5345C65.8281 11.8468 65.5945 12.1625 65.2679 12.1625C64.9427 12.1625 64.7092 11.8493 64.8022 11.5377L67.7143 1.7766C67.9381 1.02629 68.6281 0.512068 69.4111 0.512068C70.1941 0.512068 70.8841 1.02629 71.108 1.7766L74.0229 11.5474C74.1144 11.8542 73.8847 12.1625 73.5645 12.1625C73.2434 12.1625 73.0135 11.8524 73.1068 11.5451L76.1195 1.6286C76.321 0.965421 76.9325 0.512068 77.6256 0.512068C78.693 0.512068 79.4509 1.5519 79.1242 2.56804L75.3142 14.4164C75.0759 15.1574 74.3865 15.6598 73.6082 15.6598C72.8169 15.6598 72.1193 15.1409 71.8918 14.3831L68.9568 4.60563C68.8676 4.30849 69.0901 4.0094 69.4003 4.0094C69.7105 4.0094 69.933 4.30849 69.8438 4.60563L66.9088 14.3831C66.6813 15.1409 65.9837 15.6598 65.1924 15.6598ZM84.3212 15.8744C83.3637 15.8744 82.5056 15.6383 81.7469 15.1664C81.0033 14.6943 80.41 14.0507 79.9658 13.2354C79.5367 12.4201 79.3227 11.4903 79.3227 10.4461C79.3227 9.40194 79.5367 8.47217 79.9658 7.65684C80.41 6.84152 81.0033 6.19793 81.7469 5.72586C82.5056 5.25378 83.3637 5.01785 84.3212 5.01785C85.0226 5.01785 85.6517 5.1537 86.2093 5.42551C86.7821 5.69722 87.2468 6.07635 87.6046 6.56258C87.9623 7.03465 88.1623 7.57816 88.2055 8.19322V12.699C88.1623 13.3141 87.9623 13.8647 87.6046 14.3511C87.2609 14.823 86.8037 15.195 86.2309 15.4667C85.6592 15.7385 85.0226 15.8744 84.3212 15.8744ZM84.987 12.9135C85.6873 12.9135 86.2525 12.6846 86.6816 12.2269C87.1107 11.7549 87.3257 11.1613 87.3257 10.4461C87.3257 9.95983 87.2252 9.53066 87.0253 9.15877C86.8394 8.78688 86.5671 8.50081 86.2093 8.30054C85.8667 8.08601 85.4658 7.97869 85.0086 7.97869C84.5504 7.97869 84.1429 8.08601 83.7852 8.30054C83.4415 8.50081 83.1627 8.78688 82.9487 9.15877C82.7487 9.53066 82.6482 9.95983 82.6482 10.4461C82.6482 10.9181 82.7487 11.3401 82.9487 11.712C83.1486 12.0838 83.4274 12.3772 83.7852 12.5917C84.1429 12.8062 84.5439 12.9135 84.987 12.9135ZM88.8058 15.6598C87.9174 15.6598 87.1971 14.9396 87.1971 14.0511V13.0963C87.1971 12.9319 87.2129 12.7679 87.2444 12.6065L87.3604 12.0104C87.5781 10.8922 87.5781 9.74248 87.3604 8.62424L87.24 8.00596C87.2115 7.85937 87.1971 7.71037 87.1971 7.56102V6.84109C87.1971 5.95263 87.9174 5.23238 88.8058 5.23238C89.6943 5.23238 90.4145 5.95263 90.4145 6.84109V14.0511C90.4145 14.9396 89.6943 15.6598 88.8058 15.6598ZM94.3679 15.6598C93.4613 15.6598 92.7263 14.9248 92.7263 14.0182V1.72468C92.7263 0.81801 93.4613 0.0830078 94.3679 0.0830078C95.2746 0.0830078 96.0096 0.818011 96.0096 1.72468V14.0182C96.0096 14.9248 95.2746 15.6598 94.3679 15.6598ZM99.9619 15.6598C99.0553 15.6598 98.3203 14.9248 98.3203 14.0182V1.72467C98.3203 0.818006 99.0553 0.0830078 99.9619 0.0830078C100.869 0.0830078 101.604 0.818007 101.604 1.72467V14.0182C101.604 14.9249 100.869 15.6598 99.9619 15.6598ZM109.064 15.8959C107.935 15.8959 106.926 15.667 106.039 15.2093C105.167 14.7372 104.481 14.0864 103.979 13.2568C103.479 12.4272 103.229 11.4903 103.229 10.4461C103.229 9.40194 103.472 8.47217 103.959 7.65684C104.459 6.82725 105.131 6.17642 105.975 5.70435C106.819 5.23238 107.77 4.99634 108.828 4.99634C109.858 4.99634 110.766 5.21812 111.553 5.66144C112.34 6.10488 112.955 6.71994 113.399 7.50673C113.856 8.29341 114.085 9.19455 114.085 10.2101C114.085 10.396 114.071 10.5963 114.042 10.8108C114.013 11.2277 113.636 11.5196 113.218 11.5206L106.075 11.5376C105.451 11.5391 104.945 11.0343 104.945 10.411C104.945 9.78998 105.448 9.28607 106.069 9.28432L111.44 9.26919C111.769 9.26827 111.898 9.69425 111.625 9.87635C111.408 10.0211 111.114 9.8689 111.079 9.61006C111.034 9.27202 110.956 8.97855 110.845 8.7296C110.673 8.32918 110.416 8.02873 110.074 7.82847C109.744 7.61394 109.336 7.50673 108.85 7.50673C108.335 7.50673 107.885 7.6282 107.498 7.87137C107.126 8.10028 106.833 8.42926 106.618 8.85843C106.418 9.28749 106.318 9.8096 106.318 10.4247C106.318 11.0397 106.426 11.569 106.64 12.0124C106.869 12.4415 107.184 12.7776 107.585 13.0207C107.998 13.2497 108.485 13.3641 109.044 13.3641C109.558 13.3641 110.023 13.2783 110.438 13.1066C111.112 12.8046 111.974 12.733 112.496 13.2554C112.969 13.7285 113.008 14.5046 112.464 14.8945C112.158 15.1142 111.826 15.2979 111.468 15.4453C110.738 15.7457 109.937 15.8959 109.064 15.8959ZM118.561 15.6598C117.655 15.6598 116.92 14.9251 116.92 14.0187V2.56086C116.92 1.65449 117.655 0.919729 118.561 0.919729C119.468 0.919729 120.202 1.65449 120.202 2.56086V14.0187C120.202 14.9251 119.468 15.6598 118.561 15.6598ZM115.954 8.0216C115.184 8.0216 114.56 7.39721 114.56 6.62699C114.56 5.85677 115.184 5.23238 115.954 5.23238H121.168C121.938 5.23238 122.563 5.85677 122.563 6.62699C122.563 7.39721 121.938 8.0216 121.168 8.0216H115.954Z" fill="url(#paint0_linear_656_9149)" fill-opacity="0.8"/>
<defs>
<linearGradient id="paint0_linear_656_9149" x1="-49.6971" y1="8.01621" x2="179.229" y2="8.01619" gradientUnits="userSpaceOnUse">
<stop stop-color="#FF0F7B"/>
<stop offset="1" stop-color="#F89B29"/>
</linearGradient>
</defs>
</svg>
